PathFileType	3	(X/Y/Z)	C:\Users\koon_\Desktop\
DataRate	CameraRate	NumFrames	NumMarkers	Units	OrigDataRate	OrigDataStartFrame	OrigNumFrames
100.0	100.0	8	27	mm	100.0	763	2034	
Frame#	Time	GM:LFHD			GM:RFHD			GM:LBHD			GM:RBHD			GM:C7			GM:T10			GM:CLAV			GM:STRN			GM:RBAK			GM:LSHO			GM:LUPA			GM:LELB			GM:LFRA			GM:LWRA			GM:LWRB			GM:LFIN			GM:RSHO			GM:RUPA			GM:RELB			GM:RFRA			GM:RWRA			GM:RWRB			GM:RFIN			GM:LASI			GM:RASI			GM:LPSI			GM:RPSI			
		X1	Y1	Z1	X2	Y2	Z2	X3	Y3	Z3	X4	Y4	Z4	X5	Y5	Z5	X6	Y6	Z6	X7	Y7	Z7	X8	Y8	Z8	X9	Y9	Z9	X10	Y10	Z10	X11	Y11	Z11	X12	Y12	Z12	X13	Y13	Z13	X14	Y14	Z14	X15	Y15	Z15	X16	Y16	Z16	X17	Y17	Z17	X18	Y18	Z18	X19	Y19	Z19	X20	Y20	Z20	X21	Y21	Z21	X22	Y22	Z22	X23	Y23	Z23	X24	Y24	Z24	X25	Y25	Z25	X26	Y26	Z26	X27	Y27	Z27	
763	7.62	45.609524	1471.974	-10.188808	-108.33082	1466.2659	-8.7022753	45.685253	1446.5313	-140.98387	-118.11171	1444.5551	-122.67701	-30.170574	1331.5352	-187.72081	-16.647873	1198.0869	-318.47729	-23.201458	1204.0833	-72.567093	-20.386625	1052.9152	-105.1671	-117.51433	1262.864	-272.52383	141.11052	1279.1158	-122.473	213.0273	1189.3198	-158.25343	263.75681	1018.6569	-281.90247	236.0372	887.16956	-213.11464	236.56599	815.07129	-200.47743	281.82538	803.55121	-249.4173	250.59557	733.43121	-182.41454	-208.19937	1258.163	-115.91263	-282.91608	1064.7876	-224.99625	-314.1171	1006.964	-305.66547	-293.09143	938.39502	-242.48364	-277.15582	809.23926	-229.01294	-305.82309	794.91467	-281.11115	-294.18024	733.01855	-207.97446	114.21671	850.39337	-272.43448	-170.8132	850.98712	-293.62848	60.7034	923.5332	-466.35681	-92.445671	907.94769	-481.83499
764	7.63	45.304863	1460.4984	-4.4380388	-108.46423	1455.2751	-2.599602	45.014889	1434.8186	-135.11282	-118.78974	1433.1422	-116.50802	-30.709606	1321.8893	-181.97427	-16.207031	1191.4224	-314.14566	-23.759325	1192.05	-68.649849	-21.664522	1040.9136	-107.08457	-118.70928	1254.6974	-266.92807	140.14261	1267.7137	-115.72552	211.52267	1178.2736	-151.96574	264.83215	1010.5065	-278.11765	236.28325	878.2348	-211.15448	236.28484	806.22821	-199.19839	282.2048	794.91937	-247.82765	249.89212	724.53613	-181.82504	-208.55121	1245.8431	-110.21542	-282.79156	1054.5695	-223.15359	-313.97131	998.35455	-304.9639	-293.91565	928.53241	-242.95766	-278.01999	799.17578	-231.58682	-306.08383	786.08234	-285.11279	-295.05099	722.78467	-212.05826	114.68645	844.81018	-276.17972	-170.23094	846.18835	-296.9238	61.474907	919.74591	-468.92548	-91.60495	904.1955	-484.55869
765	7.64	45.052753	1448.7113	1.0566645	-108.91376	1443.9746	3.2463861	44.50985	1422.837	-129.60167	-119.42187	1421.6484	-110.68918	-31.302277	1311.7668	-176.41397	-16.031633	1184.8087	-310.60236	-24.449026	1179.8989	-65.073051	-21.987265	1029.1935	-106.4229	-119.82202	1246.1088	-261.76392	139.28548	1256.1483	-109.40783	210.07887	1166.9412	-145.99825	266.0304	1001.9136	-274.29852	236.42862	868.96136	-209.27271	235.65253	796.65863	-199.43129	282.83978	785.92169	-245.93109	249.16435	715.14532	-181.16975	-208.93286	1233.0791	-104.93587	-282.54004	1043.6981	-221.03465	-314.01501	989.18835	-304.04962	-294.78601	918.19104	-243.30008	-279.0354	788.61719	-233.88704	-306.2515	776.06628	-288.00958	-295.90045	712.02539	-215.69868	115.37203	838.61176	-280.08334	-169.42424	841.16248	-299.76355	62.165657	915.5838	-471.35034	-90.951782	900.20038	-487.15063
766	7.65	44.881477	1436.8234	6.2997942	-109.02008	1432.3909	8.6949406	44.012028	1410.6984	-124.33098	-119.76575	1409.7856	-105.09706	-31.848618	1301.3506	-171.04626	-15.97503	1177.6735	-306.92239	-24.8694	1167.605	-61.562401	-22.303699	1017.3821	-105.96564	-120.88562	1237.0546	-256.8808	138.55756	1244.4918	-103.51419	208.90092	1155.5406	-140.54901	267.28241	992.92798	-270.43069	235.83839	858.93994	-207.41571	235.38464	786.88177	-198.37761	283.68234	776.6795	-243.84019	248.62672	705.41675	-180.35477	-209.18884	1220.069	-99.886612	-282.2583	1032.3547	-218.64546	-313.85507	979.30927	-302.89319	-295.50745	907.35297	-243.28606	-280.02737	777.64496	-235.72055	-306.62851	766.22223	-290.62793	-296.62347	700.91693	-218.37239	116.40535	831.98071	-283.77408	-168.48177	835.86963	-302.20529	62.697968	910.95996	-473.60764	-90.409973	895.93024	-489.42444
767	7.66	44.680225	1424.8264	11.104528	-109.11705	1420.5249	13.89356	43.646366	1398.5061	-119.50038	-120.17898	1397.7318	-99.913864	-32.364243	1290.8279	-166.02278	-15.89993	1170.0183	-303.50809	-25.255129	1155.1561	-58.408958	-22.384666	1005.5378	-105.4734	-121.86256	1227.562	-252.26299	137.92278	1232.8495	-98.082596	208.0367	1144.1343	-135.451	268.60828	983.64081	-266.3414	236.50201	849.16595	-205.19885	235.36868	776.79388	-197.18739	284.8609	767.19604	-241.35451	249.15236	695.79437	-179.67516	-209.4201	1206.8674	-95.278633	-281.97733	1020.4738	-216.23007	-313.65253	968.86401	-301.74982	-295.98657	896.17279	-242.83031	-280.97653	766.36963	-236.7448	-307.18927	755.66351	-292.12936	-297.45575	689.57013	-220.18047	117.55016	824.93585	-287.6246	-168.1201	829.59247	-304.40286	63.025043	905.89301	-475.56525	-90.009232	891.17493	-491.3902
768	7.67	44.564335	1412.7614	15.594515	-109.49368	1408.363	18.520514	43.29921	1386.2076	-114.88635	-120.40675	1385.4808	-95.153358	-32.87228	1280.177	-161.34239	-15.871775	1161.9591	-300.48727	-25.321554	1142.7698	-55.566509	-22.227221	993.72754	-105.04628	-122.74564	1217.8126	-247.84125	137.53787	1221.1351	-93.31282	207.44934	1132.7693	-130.77599	270.09586	974.05573	-262.36719	236.17828	838.7486	-203.38663	235.49181	766.52917	-195.98289	286.31857	757.50348	-238.733	248.26064	684.8634	-178.82965	-209.45114	1193.5145	-90.733788	-281.64066	1008.1817	-213.95416	-313.51089	957.94116	-300.07062	-296.19284	884.6413	-241.76003	-281.70993	754.789	-237.17763	-307.91101	744.76025	-292.64359	-298.16238	677.98901	-220.94495	118.8547	817.64502	-291.29376	-167.2742	823.47919	-306.48651	63.149521	900.33801	-477.3631	-89.96344	886.02454	-493.19376
769	7.68	44.530506	1400.6426	19.639687	-109.41965	1396.3286	22.832172	43.033531	1373.9246	-110.82194	-120.07341	1373.275	-90.925308	-33.265961	1269.4591	-157.30447	-15.867366	1153.3896	-297.66037	-25.267555	1130.2589	-52.912128	-21.83074	982.05023	-104.78211	-123.54546	1207.8203	-243.71143	136.76302	1209.1362	-89.56768	206.85724	1121.6799	-126.35915	271.80136	964.24329	-258.41681	236.51201	828.2356	-201.36757	235.98778	755.96289	-194.64964	288.06158	747.58179	-235.98665	248.9218	674.4101	-177.99631	-209.37791	1180.1241	-86.584839	-281.03702	995.5564	-211.55643	-313.40857	946.50641	-297.99203	-296.23688	872.78082	-240.31775	-282.33524	742.88574	-236.88666	-308.7045	733.53046	-292.19974	-299.34503	666.16809	-221.14513	120.26996	809.97845	-295.84048	-165.88022	814.9657	-308.16833	63.135834	894.35706	-479.0871	-90.089127	880.43896	-494.6499
770	7.69	44.558128	1388.6439	23.239225	-109.3061	1384.212	26.604502	42.931618	1361.6215	-107.23212	-120.14843	1361.0114	-87.17997	-33.602123	1258.5677	-153.66386	-15.878301	1144.5837	-295.13297	-24.921461	1117.8744	-50.715179	-21.110876	970.33258	-104.7066	-124.26494	1197.598	-239.7713	136.38055	1197.5256	-86.146515	206.48073	1110.7277	-122.65478	273.69305	954.30096	-254.56479	237.94531	817.91724	-198.52856	236.91362	745.41217	-193.179	290.08234	737.50751	-233.14612	249.63722	663.7652	-177.06587	-209.21094	1166.7787	-82.619232	-280.25534	982.76086	-208.69792	-313.07666	934.7403	-295.38809	-296.08011	860.5993	-238.23373	-282.71106	730.73169	-235.55772	-309.45276	721.82281	-290.89621	-300.42392	653.96967	-220.90256	121.79308	802.29242	-299.14536	-164.59566	807.21802	-308.96423	62.805168	887.89978	-481.17047	-90.43808	874.37585	-495.70789
